<?xml version="1.0" standalone="no"?>
<!DOCTYPE svg PUBLIC "-//W3C//DTD SVG 20010904//EN"
 "http://www.w3.org/TR/2001/REC-SVG-20010904/DTD/svg10.dtd">
<svg version="1.0" xmlns="http://www.w3.org/2000/svg"
 width="334.000000pt" height="96.000000pt" viewBox="0 0 334.000000 96.000000"
 preserveAspectRatio="xMidYMid meet">

<g transform="translate(0.000000,96.000000) scale(0.100000,-0.100000)"
fill="#000000" stroke="none">
<path d="M20 942 l-23 -19 19 -114 c25 -150 26 -505 2 -654 -11 -65 -13 -105
-7 -117 20 -38 143 -35 158 4 4 11 1 48 -6 82 -16 77 -17 148 -1 164 42 42
129 -17 148 -101 25 -114 34 -138 58 -157 48 -38 142 -16 142 32 0 49 -54 201
-82 228 -29 30 -97 50 -166 50 -62 0 -113 12 -119 27 -10 26 16 30 101 15 168
-30 258 15 273 136 5 45 3 53 -21 77 -22 22 -34 26 -73 23 -28 -2 -49 -9 -54
-18 -4 -8 -19 -41 -34 -73 -45 -97 -126 -128 -165 -64 -36 59 -21 240 36 434
4 14 -1 28 -15 42 -29 29 -137 30 -171 3z"/>
<path d="M723 599 c-75 -29 -135 -99 -158 -184 -43 -158 16 -323 139 -388 61
-32 192 -31 259 2 64 31 99 84 100 150 1 76 -35 106 -67 56 -31 -46 -74 -65
-151 -65 -106 1 -215 59 -215 117 0 27 6 28 71 7 108 -36 266 -5 318 62 121
154 -86 324 -296 243z m106 -94 c40 -20 59 -70 40 -104 -33 -60 -131 -78 -209
-38 -51 25 -61 53 -35 93 38 59 139 83 204 49z"/>
<path d="M1299 605 c-60 -19 -133 -85 -166 -149 -20 -39 -27 -70 -31 -132 -4
-73 -1 -88 23 -143 87 -192 316 -241 460 -97 151 151 116 409 -69 503 -62 32
-152 39 -217 18z m74 -106 c131 -67 245 -227 223 -315 -12 -45 -59 -84 -103
-84 -47 0 -125 36 -179 83 -85 74 -146 197 -130 261 18 73 104 98 189 55z"/>
<path d="M1734 610 c-25 -10 -64 -57 -64 -77 0 -14 6 -17 52 -27 20 -4 30 -16
39 -43 18 -54 15 -233 -5 -337 -9 -49 -15 -95 -12 -102 4 -10 28 -14 90 -14
47 0 87 4 90 8 3 5 -1 33 -9 63 -25 94 -29 188 -11 257 18 73 49 136 81 168
34 34 97 33 130 -1 32 -31 32 -79 4 -195 -35 -142 -26 -247 24 -289 24 -20 84
-25 133 -11 52 15 64 32 41 58 -9 10 -24 36 -33 57 -31 75 2 258 64 356 52 81
128 90 165 19 20 -39 18 -72 -14 -205 -45 -188 -6 -295 105 -295 46 0 116 28
116 46 0 8 -4 14 -8 14 -5 0 -18 17 -30 39 -26 45 -28 111 -10 238 20 141 -7
223 -88 263 -84 42 -181 17 -251 -65 l-41 -48 -15 34 c-20 49 -69 87 -122 95
-95 14 -175 -23 -221 -102 -19 -33 -29 -42 -35 -32 -5 7 -9 19 -9 26 0 8 -7
29 -16 48 -26 54 -85 77 -140 54z"/>
<path d="M2902 601 c-64 -22 -109 -62 -122 -109 -21 -77 18 -132 97 -139 33
-3 54 0 68 10 18 14 18 19 7 49 -20 57 -15 87 22 124 88 88 226 -1 159 -102
-17 -26 -84 -64 -193 -108 -90 -37 -140 -74 -161 -121 -50 -110 15 -205 141
-205 53 0 123 30 142 59 17 27 55 27 63 0 9 -28 63 -59 103 -59 67 0 129 62
96 95 -9 8 -22 15 -30 15 -8 0 -24 19 -34 42 -16 36 -20 66 -20 181 0 151 -8
184 -56 229 -62 57 -181 74 -282 39z m215 -286 c9 -24 -17 -102 -48 -144 -32
-45 -71 -59 -104 -37 -57 37 -35 95 57 155 68 45 85 49 95 26z"/>
</g>
</svg>
